                                                                        S      1
,,16Hmoaile-stick.ipt,27HNo Iges File Name specified,22HAutodesk InventoG      1
r 2009,37HAutoDesk Inventor Iges Exporter R2009,32,38,6,99,15,16Hmoaile-G      2
stick.ipt,1.0D0,2,2HMM,1,.08D0,15H20090826.065023,.01D0,10000.0D0,4HhideG      3
,,11,0,,;                                                               G      4
     406       1       0       0       1       0       0       000000000D      1
     406       0       0       1       3                               0D      2
     120       2       0       0       0       0       0       000010000D      3
     120       0       0       1       0                               0D      4
     110       3       0       0       0       0       0       000010000D      5
     110       0       0       1       0                               0D      6
     110       4       0       0       0       0       0       001010000D      7
     110       0       0       1       0                               0D      8
     502       5       0       0       0       0       0       000010000D      9
     502       0       0      12       1                               0D     10
     110      17       0       0       0       0       0       000010000D     11
     110       0       0       1       0                               0D     12
     504      18       0       0       0       0       0       000010001D     13
     504       0       0       8       1                               0D     14
     100      26       0       0       0       0      17       000010000D     15
     100       0       0       2       0                               0D     16
     124      28       0       0       0       0       0       000000000D     17
     124       0       0       2       0                               0D     18
     110      30       0       0       0       0       0       000010000D     19
     110       0       0       2       0                               0D     20
     100      32       0       0       0       0      23       000010000D     21
     100       0       0       1       0                               0D     22
     124      33       0       0       0       0       0       000000000D     23
     124       0       0       2       0                               0D     24
     508      35       0       0       0       0       0       000010000D     25
     508       0       0       1       1                               0D     26
     510      36       0       0       0       0       0       000010001D     27
     510       0       0       1       1                               0D     28
     120      37       0       0       0       0       0       000010000D     29
     120       0       0       1       0                               0D     30
     110      38       0       0       0       0       0       000010000D     31
     110       0       0       1       0                               0D     32
     110      39       0       0       0       0       0       001010000D     33
     110       0       0       1       0                               0D     34
     110      40       0       0       0       0       0       000010000D     35
     110       0       0       1       0                               0D     36
     100      41       0       0       0       0      39       000010000D     37
     100       0       0       2       0                               0D     38
     124      43       0       0       0       0       0       000000000D     39
     124       0       0       2       0                               0D     40
     110      45       0       0       0       0       0       000010000D     41
     110       0       0       2       0                               0D     42
     100      47       0       0       0       0      45       000010000D     43
     100       0       0       1       0                               0D     44
     124      48       0       0       0       0       0       000000000D     45
     124       0       0       2       0                               0D     46
     508      50       0       0       0       0       0       000010000D     47
     508       0       0       1       1                               0D     48
     510      51       0       0       0       0       0       000010001D     49
     510       0       0       1       1                               0D     50
     120      52       0       0       0       0       0       000010000D     51
     120       0       0       1       0                               0D     52
     110      53       0       0       0       0       0       000010000D     53
     110       0       0       1       0                               0D     54
     110      54       0       0       0       0       0       001010000D     55
     110       0       0       1       0                               0D     56
     100      55       0       0       0       0      45       000010000D     57
     100       0       0       2       0                               0D     58
     100      57       0       0       0       0      39       000010000D     59
     100       0       0       1       0                               0D     60
     508      58       0       0       0       0       0       000010000D     61
     508       0       0       1       1                               0D     62
     510      59       0       0       0       0       0       000010001D     63
     510       0       0       1       1                               0D     64
     120      60       0       0       0       0       0       000010000D     65
     120       0       0       1       0                               0D     66
     110      61       0       0       0       0       0       000010000D     67
     110       0       0       1       0                               0D     68
     110      62       0       0       0       0       0       001010000D     69
     110       0       0       1       0                               0D     70
     100      63       0       0       0       0      23       000010000D     71
     100       0       0       2       0                               0D     72
     100      65       0       0       0       0      17       000010000D     73
     100       0       0       1       0                               0D     74
     508      66       0       0       0       0       0       000010000D     75
     508       0       0       1       1                               0D     76
     510      67       0       0       0       0       0       000010001D     77
     510       0       0       1       1                               0D     78
     116      68       0       0       0       0       0       000010000D     79
     116       0       0       1       0                               0D     80
     123      69       0       0       0       0       0       000010200D     81
     123       0       0       1       0                               0D     82
     192      70       0       0       0       0       0       000010000D     83
     192       0       0       1       1                               0D     84
     123      71       0       0       0       0       0       000010200D     85
     123       0       0       1       0                               0D     86
     100      72       0       0       0       0      89       000010000D     87
     100       0       0       2       0                               0D     88
     124      74       0       0       0       0       0       000000000D     89
     124       0       0       2       0                               0D     90
     110      76       0       0       0       0       0       000010000D     91
     110       0       0       2       0                               0D     92
     100      78       0       0       0       0      95       000010000D     93
     100       0       0       2       0                               0D     94
     124      80       0       0       0       0       0       000000000D     95
     124       0       0       2       0                               0D     96
     110      82       0       0       0       0       0       000010000D     97
     110       0       0       2       0                               0D     98
     508      84       0       0       0       0       0       000010000D     99
     508       0       0       1       1                               0D    100
     510      85       0       0       0       0       0       000010001D    101
     510       0       0       1       1                               0D    102
     116      86       0       0       0       0       0       000010000D    103
     116       0       0       1       0                               0D    104
     123      87       0       0       0       0       0       000010200D    105
     123       0       0       1       0                               0D    106
     190      88       0       0       0       0       0       000010000D    107
     190       0       0       1       1                               0D    108
     123      89       0       0       0       0       0       000010200D    109
     123       0       0       1       0                               0D    110
     110      90       0       0       0       0       0       000010000D    111
     110       0       0       2       0                               0D    112
     110      92       0       0       0       0       0       000010000D    113
     110       0       0       2       0                               0D    114
     110      94       0       0       0       0       0       000010000D    115
     110       0       0       2       0                               0D    116
     508      96       0       0       0       0       0       000010000D    117
     508       0       0       1       1                               0D    118
     510      97       0       0       0       0       0       000010001D    119
     510       0       0       1       1                               0D    120
     116      98       0       0       0       0       0       000010000D    121
     116       0       0       1       0                               0D    122
     123      99       0       0       0       0       0       000010200D    123
     123       0       0       1       0                               0D    124
     192     100       0       0       0       0       0       000010000D    125
     192       0       0       1       1                               0D    126
     123     101       0       0       0       0       0       000010200D    127
     123       0       0       1       0                               0D    128
     100     102       0       0       0       0     131       000010000D    129
     100       0       0       2       0                               0D    130
     124     104       0       0       0       0       0       000000000D    131
     124       0       0       2       0                               0D    132
     110     106       0       0       0       0       0       000010000D    133
     110       0       0       1       0                               0D    134
     100     107       0       0       0       0     137       000010000D    135
     100       0       0       2       0                               0D    136
     124     109       0       0       0       0       0       000000000D    137
     124       0       0       2       0                               0D    138
     508     111       0       0       0       0       0       000010000D    139
     508       0       0       1       1                               0D    140
     510     112       0       0       0       0       0       000010001D    141
     510       0       0       1       1                               0D    142
     116     113       0       0       0       0       0       000010000D    143
     116       0       0       1       0                               0D    144
     123     114       0       0       0       0       0       000010200D    145
     123       0       0       1       0                               0D    146
     190     115       0       0       0       0       0       000010000D    147
     190       0       0       1       1                               0D    148
     123     116       0       0       0       0       0       000010200D    149
     123       0       0       1       0                               0D    150
     110     117       0       0       0       0       0       000010000D    151
     110       0       0       1       0                               0D    152
     110     118       0       0       0       0       0       000010000D    153
     110       0       0       1       0                               0D    154
     110     119       0       0       0       0       0       000010000D    155
     110       0       0       1       0                               0D    156
     508     120       0       0       0       0       0       000010000D    157
     508       0       0       1       1                               0D    158
     510     121       0       0       0       0       0       000010001D    159
     510       0       0       1       1                               0D    160
     116     122       0       0       0       0       0       000010000D    161
     116       0       0       1       0                               0D    162
     123     123       0       0       0       0       0       000010200D    163
     123       0       0       1       0                               0D    164
     192     124       0       0       0       0       0       000010000D    165
     192       0       0       1       1                               0D    166
     123     125       0       0       0       0       0       000010200D    167
     123       0       0       1       0                               0D    168
     100     126       0       0       0       0     171       000010000D    169
     100       0       0       2       0                               0D    170
     124     128       0       0       0       0       0       000000000D    171
     124       0       0       2       0                               0D    172
     110     130       0       0       0       0       0       000010000D    173
     110       0       0       2       0                               0D    174
     100     132       0       0       0       0     177       000010000D    175
     100       0       0       2       0                               0D    176
     124     134       0       0       0       0       0       000000000D    177
     124       0       0       2       0                               0D    178
     508     136       0       0       0       0       0       000010000D    179
     508       0       0       1       1                               0D    180
     510     137       0       0       0       0       0       000010001D    181
     510       0       0       1       1                               0D    182
     116     138       0       0       0       0       0       000010000D    183
     116       0       0       1       0                               0D    184
     123     139       0       0       0       0       0       000010200D    185
     123       0       0       1       0                               0D    186
     190     140       0       0       0       0       0       000010000D    187
     190       0       0       1       1                               0D    188
     123     141       0       0       0       0       0       000010200D    189
     123       0       0       1       0                               0D    190
     110     142       0       0       0       0       0       000010000D    191
     110       0       0       1       0                               0D    192
     110     143       0       0       0       0       0       000010000D    193
     110       0       0       1       0                               0D    194
     110     144       0       0       0       0       0       000010000D    195
     110       0       0       1       0                               0D    196
     508     145       0       0       0       0       0       000010000D    197
     508       0       0       1       1                               0D    198
     510     146       0       0       0       0       0       000010001D    199
     510       0       0       1       1                               0D    200
     116     147       0       0       0       0       0       000010000D    201
     116       0       0       1       0                               0D    202
     123     148       0       0       0       0       0       000010200D    203
     123       0       0       1       0                               0D    204
     192     149       0       0       0       0       0       000010000D    205
     192       0       0       1       1                               0D    206
     123     150       0       0       0       0       0       000010200D    207
     123       0       0       1       0                               0D    208
     100     151       0       0       0       0     211       000010000D    209
     100       0       0       2       0                               0D    210
     124     153       0       0       0       0       0       000000000D    211
     124       0       0       2       0                               0D    212
     110     155       0       0       0       0       0       000010000D    213
     110       0       0       1       0                               0D    214
     100     156       0       0       0       0     217       000010000D    215
     100       0       0       2       0                               0D    216
     124     158       0       0       0       0       0       000000000D    217
     124       0       0       2       0                               0D    218
     508     160       0       0       0       0       0       000010000D    219
     508       0       0       1       1                               0D    220
     510     161       0       0       0       0       0       000010001D    221
     510       0       0       1       1                               0D    222
     116     162       0       0       0       0       0       000010000D    223
     116       0       0       1       0                               0D    224
     123     163       0       0       0       0       0       000010200D    225
     123       0       0       1       0                               0D    226
     190     164       0       0       0       0       0       000010000D    227
     190       0       0       1       1                               0D    228
     123     165       0       0       0       0       0       000010200D    229
     123       0       0       1       0                               0D    230
     110     166       0       0       0       0       0       000010000D    231
     110       0       0       1       0                               0D    232
     110     167       0       0       0       0       0       000010000D    233
     110       0       0       1       0                               0D    234
     508     168       0       0       0       0       0       000010000D    235
     508       0       0       1       1                               0D    236
     510     169       0       0       0       0       0       000010001D    237
     510       0       0       1       1                               0D    238
     116     170       0       0       0       0       0       000010000D    239
     116       0       0       1       0                               0D    240
     123     171       0       0       0       0       0       000010200D    241
     123       0       0       1       0                               0D    242
     190     172       0       0       0       0       0       000010000D    243
     190       0       0       1       1                               0D    244
     123     173       0       0       0       0       0       000010200D    245
     123       0       0       1       0                               0D    246
     508     174       0       0       0       0       0       000010000D    247
     508       0       0       2       1                               0D    248
     508     176       0       0       0       0       0       000010000D    249
     508       0       0       1       1                               0D    250
     508     177       0       0       0       0       0       000010000D    251
     508       0       0       1       1                               0D    252
     510     178       0       0       0       0       0       000010001D    253
     510       0       0       1       1                               0D    254
     116     179       0       0       0       0       0       000010000D    255
     116       0       0       1       0                               0D    256
     123     180       0       0       0       0       0       000010200D    257
     123       0       0       1       0                               0D    258
     190     181       0       0       0       0       0       000010000D    259
     190       0       0       1       1                               0D    260
     123     182       0       0       0       0       0       000010200D    261
     123       0       0       1       0                               0D    262
     508     183       0       0       0       0       0       000010000D    263
     508       0       0       2       1                               0D    264
     508     185       0       0       0       0       0       000010000D    265
     508       0       0       1       1                               0D    266
     508     186       0       0       0       0       0       000010000D    267
     508       0       0       1       1                               0D    268
     510     187       0       0       0       0       0       000010001D    269
     510       0       0       1       1                               0D    270
     514     188       0       0       0       0       0       000010000D    271
     514       0       0       2       1                               0D    272
     186     190       0       0       1       0       0       000000000D    273
     186       0    -275       1       0                               0D    274
     314     191       0       0       0       0       0       000000200D    275
     314       0       0       2       0                               0D    276
406,2,0,12Hmoaile-stick;                                               1P      1
120,7,5,0.0D0,6.28318530717959D0;                                      3P      2
110,-23.05D0,.5D0,-.1D0,-23.05D0,.5D0,2.1D0;                           5P      3
110,-21.5D0,.5D0,-.1D0,-21.5D0,.5D0,.9D0;                              7P      4
502,24,-23.05D0,.5D0,0.0D0,-23.05D0,.5D0,2.0D0,-19.95D0,               9P      5
.500000000000001D0,0.0D0,-19.95D0,.500000000000001D0,2.0D0,            9P      6
-3.05D0,.5D0,0.0D0,-3.05D0,.5D0,2.0D0,4.99999999999967D-2,             9P      7
.500000000000001D0,0.0D0,4.99999999999967D-2,.500000000000001D0,       9P      8
2.0D0,-1.00000000000001D0,3.0D0,2.0D0,.999999999999996D0,1.0D0,        9P      9
2.0D0,.999999999999996D0,1.0D0,0.0D0,-1.00000000000001D0,3.0D0,        9P     10
0.0D0,.999999999999996D0,3.19189119579732D-15,2.0D0,                   9P     11
.999999999999996D0,3.19189119579732D-15,0.0D0,-1.0D0,-2.0D0,           9P     12
2.0D0,-1.0D0,-2.0D0,0.0D0,-22.0D0,-2.0D0,2.0D0,-22.0D0,-2.0D0,         9P     13
0.0D0,-24.0D0,3.31922669642325D-15,2.0D0,-24.0D0,                      9P     14
3.31922669642325D-15,0.0D0,-24.0D0,1.0D0,2.0D0,-24.0D0,1.0D0,          9P     15
0.0D0,-22.0D0,3.0D0,2.0D0,-22.0D0,3.0D0,0.0D0;                         9P     16
110,-23.05D0,.5D0,0.0D0,-23.05D0,.5D0,2.0D0;                          11P     17
504,36,11,9,1,9,2,15,9,3,9,1,19,9,3,9,4,21,9,2,9,4,35,9,5,9,6,        13P     18
37,9,7,9,5,41,9,7,9,8,43,9,6,9,8,57,9,8,9,6,59,9,5,9,7,71,9,4,9,      13P     19
2,73,9,1,9,3,87,9,9,9,10,91,9,11,9,10,93,9,12,9,11,97,9,12,9,9,       13P     20
111,9,10,9,13,113,9,14,9,13,115,9,11,9,14,129,9,13,9,15,133,9,        13P     21
16,9,15,135,9,14,9,16,151,9,15,9,17,153,9,18,9,17,155,9,16,9,18,      13P     22
169,9,17,9,19,173,9,20,9,19,175,9,18,9,20,191,9,19,9,21,193,9,        13P     23
22,9,21,195,9,20,9,22,209,9,21,9,23,213,9,24,9,23,215,9,22,9,24,      13P     24
231,9,23,9,9,233,9,24,9,12;                                           13P     25
100,0.0D0,0.0D0,0.0D0,-1.55D0,1.8982025386784D-16,1.55D0,             15P     26
-3.7964050773568D-16;                                                 15P     27
124,-1.0D0,0.0D0,0.0D0,-21.5D0,0.0D0,-1.0D0,0.0D0,.5D0,0.0D0,         17P     28
0.0D0,1.0D0,0.0D0;                                                    17P     29
110,-19.95D0,.500000000000001D0,0.0D0,-19.95D0,                       19P     30
.500000000000001D0,2.0D0;                                             19P     31
100,0.0D0,0.0D0,0.0D0,1.55D0,0.0D0,-1.55D0,1.8982025386784D-16;       21P     32
124,-1.0D0,0.0D0,0.0D0,-21.5D0,0.0D0,1.0D0,0.0D0,.5D0,0.0D0,          23P     33
0.0D0,-1.0D0,2.0D0;                                                   23P     34
508,4,0,13,1,0,0,0,13,2,0,0,0,13,3,1,0,0,13,4,0,0;                    25P     35
510,3,1,1,25;                                                         27P     36
120,33,31,0.0D0,6.28318530717959D0;                                   29P     37
110,-3.05D0,.5D0,-.1D0,-3.05D0,.5D0,2.1D0;                            31P     38
110,-1.5D0,.5D0,-.1D0,-1.5D0,.5D0,.9D0;                               33P     39
110,-3.05D0,.5D0,0.0D0,-3.05D0,.5D0,2.0D0;                            35P     40
100,0.0D0,0.0D0,0.0D0,-1.55D0,1.8982025386784D-16,1.55D0,             37P     41
-3.7964050773568D-16;                                                 37P     42
124,-1.0D0,0.0D0,0.0D0,-1.5D0,0.0D0,-1.0D0,0.0D0,.5D0,0.0D0,          39P     43
0.0D0,1.0D0,0.0D0;                                                    39P     44
110,4.99999999999967D-2,.500000000000001D0,0.0D0,                     41P     45
4.99999999999967D-2,.500000000000001D0,2.0D0;                         41P     46
100,0.0D0,0.0D0,0.0D0,1.55D0,0.0D0,-1.55D0,1.8982025386784D-16;       43P     47
124,-1.0D0,0.0D0,0.0D0,-1.5D0,0.0D0,1.0D0,0.0D0,.5D0,0.0D0,           45P     48
0.0D0,-1.0D0,2.0D0;                                                   45P     49
508,4,0,13,5,0,0,0,13,6,0,0,0,13,7,1,0,0,13,8,0,0;                    47P     50
510,29,1,1,47;                                                        49P     51
120,55,53,0.0D0,6.28318530717959D0;                                   51P     52
110,-3.05D0,.5D0,-.1D0,-3.05D0,.5D0,2.1D0;                            53P     53
110,-1.5D0,.5D0,-.1D0,-1.5D0,.5D0,.9D0;                               55P     54
100,0.0D0,0.0D0,0.0D0,-1.55D0,1.8982025386784D-16,1.55D0,             57P     55
-3.7964050773568D-16;                                                 57P     56
100,0.0D0,0.0D0,0.0D0,1.55D0,0.0D0,-1.55D0,1.8982025386784D-16;       59P     57
508,4,0,13,5,1,0,0,13,9,0,0,0,13,7,0,0,0,13,10,0,0;                   61P     58
510,51,1,1,61;                                                        63P     59
120,69,67,0.0D0,6.28318530717959D0;                                   65P     60
110,-23.05D0,.5D0,-.1D0,-23.05D0,.5D0,2.1D0;                          67P     61
110,-21.5D0,.5D0,-.1D0,-21.5D0,.5D0,.9D0;                             69P     62
100,0.0D0,0.0D0,0.0D0,-1.55D0,1.8982025386784D-16,1.55D0,             71P     63
-3.7964050773568D-16;                                                 71P     64
100,0.0D0,0.0D0,0.0D0,1.55D0,0.0D0,-1.55D0,1.8982025386784D-16;       73P     65
508,4,0,13,1,1,0,0,13,11,0,0,0,13,3,0,0,0,13,12,0,0;                  75P     66
510,65,1,1,75;                                                        77P     67
116,-1.0D0,1.0D0,0.0D0,0;                                             79P     68
123,0.0D0,0.0D0,1.0D0;                                                81P     69
192,79,81,2.0D0,85;                                                   83P     70
123,-1.0D0,0.0D0,0.0D0;                                               85P     71
100,0.0D0,0.0D0,0.0D0,1.45473230946492D-15,2.0D0,-2.0D0,              87P     72
2.44929359829471D-16;                                                 87P     73
124,-1.0D0,0.0D0,0.0D0,-1.0D0,0.0D0,1.0D0,0.0D0,1.0D0,0.0D0,          89P     74
0.0D0,-1.0D0,2.0D0;                                                   89P     75
110,.999999999999996D0,1.0D0,0.0D0,.999999999999996D0,1.0D0,          91P     76
2.0D0;                                                                91P     77
100,0.0D0,0.0D0,0.0D0,1.45473230946492D-15,2.0D0,-2.0D0,              93P     78
2.44929359829471D-16;                                                 93P     79
124,-1.0D0,0.0D0,0.0D0,-1.0D0,0.0D0,1.0D0,0.0D0,1.0D0,0.0D0,          95P     80
0.0D0,-1.0D0,0.0D0;                                                   95P     81
110,-1.00000000000001D0,3.0D0,0.0D0,-1.00000000000001D0,3.0D0,        97P     82
2.0D0;                                                                97P     83
508,4,0,13,13,1,0,0,13,14,0,0,0,13,15,0,0,0,13,16,1,0;                99P     84
510,83,1,1,99;                                                       101P     85
116,.999999999999996D0,1.0D0,0.0D0,0;                                103P     86
123,1.0D0,0.0D0,0.0D0;                                               105P     87
190,103,105,109;                                                     107P     88
123,0.0D0,0.0D0,-1.0D0;                                              109P     89
110,.999999999999996D0,1.0D0,2.0D0,.999999999999996D0,               111P     90
3.10862446895044D-15,2.0D0;                                          111P     91
110,.999999999999996D0,3.19189119579732D-15,0.0D0,                   113P     92
.999999999999996D0,3.19189119579732D-15,2.0D0;                       113P     93
110,.999999999999996D0,1.0D0,0.0D0,.999999999999996D0,               115P     94
3.10862446895044D-15,0.0D0;                                          115P     95
508,4,0,13,17,1,0,0,13,18,0,0,0,13,19,0,0,0,13,14,1,0;               117P     96
510,107,1,1,117;                                                     119P     97
116,-1.0D0,2.77555756156289D-15,0.0D0,0;                             121P     98
123,0.0D0,0.0D0,1.0D0;                                               123P     99
192,121,123,2.0D0,127;                                               125P    100
123,0.0D0,1.0D0,0.0D0;                                               127P    101
100,0.0D0,0.0D0,0.0D0,5.66553889764798D-16,2.0D0,-2.0D0,             129P    102
2.44929359829471D-16;                                                129P    103
124,0.0D0,1.0D0,0.0D0,-1.0D0,1.0D0,0.0D0,0.0D0,                      131P    104
2.77555756156289D-15,0.0D0,0.0D0,-1.0D0,2.0D0;                       131P    105
110,-1.0D0,-2.0D0,0.0D0,-1.0D0,-2.0D0,2.0D0;                         133P    106
100,0.0D0,0.0D0,0.0D0,5.66553889764798D-16,2.0D0,-2.0D0,             135P    107
2.44929359829471D-16;                                                135P    108
124,0.0D0,1.0D0,0.0D0,-1.0D0,1.0D0,0.0D0,0.0D0,                      137P    109
2.77555756156289D-15,0.0D0,0.0D0,-1.0D0,0.0D0;                       137P    110
508,4,0,13,20,1,0,0,13,21,0,0,0,13,22,0,0,0,13,18,1,0;               139P    111
510,125,1,1,139;                                                     141P    112
116,-1.0D0,-2.0D0,0.0D0,0;                                           143P    113
123,0.0D0,-1.0D0,0.0D0;                                              145P    114
190,143,145,149;                                                     147P    115
123,0.0D0,0.0D0,-1.0D0;                                              149P    116
110,-1.0D0,-2.0D0,2.0D0,-22.0D0,-2.0D0,2.0D0;                        151P    117
110,-22.0D0,-2.0D0,0.0D0,-22.0D0,-2.0D0,2.0D0;                       153P    118
110,-1.0D0,-2.0D0,0.0D0,-22.0D0,-2.0D0,0.0D0;                        155P    119
508,4,0,13,23,1,0,0,13,24,0,0,0,13,25,0,0,0,13,21,1,0;               157P    120
510,147,1,1,157;                                                     159P    121
116,-22.0D0,1.66533453693773D-15,0.0D0,0;                            161P    122
123,0.0D0,0.0D0,1.0D0;                                               163P    123
192,161,163,2.0D0,167;                                               165P    124
123,1.0D0,0.0D0,0.0D0;                                               167P    125
100,0.0D0,0.0D0,0.0D0,1.22464679914735D-16,2.0D0,-2.0D0,             169P    126
-1.53142747957078D-15;                                               169P    127
124,1.0D0,0.0D0,0.0D0,-22.0D0,0.0D0,-1.0D0,0.0D0,                    171P    128
1.66533453693773D-15,0.0D0,0.0D0,-1.0D0,2.0D0;                       171P    129
110,-24.0D0,3.31922669642325D-15,0.0D0,-24.0D0,                      173P    130
3.31922669642325D-15,2.0D0;                                          173P    131
100,0.0D0,0.0D0,0.0D0,1.22464679914735D-16,2.0D0,-2.0D0,             175P    132
-1.53142747957078D-15;                                               175P    133
124,1.0D0,0.0D0,0.0D0,-22.0D0,0.0D0,-1.0D0,0.0D0,                    177P    134
1.66533453693773D-15,0.0D0,0.0D0,-1.0D0,0.0D0;                       177P    135
508,4,0,13,26,1,0,0,13,27,0,0,0,13,28,0,0,0,13,24,1,0;               179P    136
510,165,1,1,179;                                                     181P    137
116,-24.0D0,3.31922669642325D-15,0.0D0,0;                            183P    138
123,-1.0D0,0.0D0,0.0D0;                                              185P    139
190,183,185,189;                                                     187P    140
123,0.0D0,0.0D0,1.0D0;                                               189P    141
110,-24.0D0,3.31922669642325D-15,2.0D0,-24.0D0,1.0D0,2.0D0;          191P    142
110,-24.0D0,1.0D0,0.0D0,-24.0D0,1.0D0,2.0D0;                         193P    143
110,-24.0D0,3.31922669642325D-15,0.0D0,-24.0D0,1.0D0,0.0D0;          195P    144
508,4,0,13,29,1,0,0,13,30,0,0,0,13,31,0,0,0,13,27,1,0;               197P    145
510,187,1,1,197;                                                     199P    146
116,-22.0D0,.999999999999997D0,0.0D0,0;                              201P    147
123,0.0D0,0.0D0,1.0D0;                                               203P    148
192,201,203,2.0D0,207;                                               205P    149
123,0.0D0,-1.0D0,0.0D0;                                              207P    150
100,0.0D0,0.0D0,0.0D0,-3.87433820873583D-15,2.0D0,-2.0D0,            209P    151
3.79764303862998D-15;                                                209P    152
124,0.0D0,-1.0D0,0.0D0,-22.0D0,-1.0D0,0.0D0,0.0D0,                   211P    153
.999999999999997D0,0.0D0,0.0D0,-1.0D0,2.0D0;                         211P    154
110,-22.0D0,3.0D0,0.0D0,-22.0D0,3.0D0,2.0D0;                         213P    155
100,0.0D0,0.0D0,0.0D0,-3.87433820873583D-15,2.0D0,-2.0D0,            215P    156
3.79764303862998D-15;                                                215P    157
124,0.0D0,-1.0D0,0.0D0,-22.0D0,-1.0D0,0.0D0,0.0D0,                   217P    158
.999999999999997D0,0.0D0,0.0D0,-1.0D0,0.0D0;                         217P    159
508,4,0,13,32,1,0,0,13,33,0,0,0,13,34,0,0,0,13,30,1,0;               219P    160
510,205,1,1,219;                                                     221P    161
116,-22.0D0,3.0D0,0.0D0,0;                                           223P    162
123,0.0D0,1.0D0,0.0D0;                                               225P    163
190,223,225,229;                                                     227P    164
123,0.0D0,0.0D0,1.0D0;                                               229P    165
110,-22.0D0,3.0D0,2.0D0,-1.00000000000001D0,3.0D0,2.0D0;             231P    166
110,-22.0D0,3.0D0,0.0D0,-1.00000000000001D0,3.0D0,0.0D0;             233P    167
508,4,0,13,35,1,0,0,13,16,0,0,0,13,36,0,0,0,13,33,1,0;               235P    168
510,227,1,1,235;                                                     237P    169
116,-11.5D0,.500000000000001D0,2.0D0,0;                              239P    170
123,0.0D0,0.0D0,1.0D0;                                               241P    171
190,239,241,245;                                                     243P    172
123,1.0D0,0.0D0,0.0D0;                                               245P    173
508,8,0,13,13,0,0,0,13,35,0,0,0,13,32,0,0,0,13,29,0,0,0,13,26,0,     247P    174
0,0,13,23,0,0,0,13,20,0,0,0,13,17,0,0;                               247P    175
508,2,0,13,9,1,0,0,13,8,1,0;                                         249P    176
508,2,0,13,11,1,0,0,13,4,1,0;                                        251P    177
510,243,3,1,247,249,251;                                             253P    178
116,-11.5D0,.500000000000001D0,0.0D0,0;                              255P    179
123,0.0D0,0.0D0,-1.0D0;                                              257P    180
190,255,257,261;                                                     259P    181
123,-1.0D0,0.0D0,0.0D0;                                              261P    182
508,8,0,13,36,1,0,0,13,15,1,0,0,13,19,1,0,0,13,22,1,0,0,13,25,1,     263P    183
0,0,13,28,1,0,0,13,31,1,0,0,13,34,1,0;                               263P    184
508,2,0,13,6,1,0,0,13,10,1,0;                                        265P    185
508,2,0,13,2,1,0,0,13,12,1,0;                                        267P    186
510,259,3,1,263,265,267;                                             269P    187
514,14,27,1,49,1,63,1,77,1,101,1,119,1,141,1,159,1,181,1,199,1,      271P    188
221,1,237,1,253,1,269,1;                                             271P    189
186,271,1,0;                                                         273P    190
314,30.9803992509842D0,30.9803992509842D0,30.9803992509842D0,        275P    191
14HRubber (Black);                                                   275P    192
S      1G      4D    276P    192                                        T      1
